<?xml version="1.0" encoding="UTF-8"?>
<svg viewBox="0 0 250 312.5" xmlns="http://www.w3.org/2000/svg">
    <g transform="translate(-9.5625 -402.2)" fill-rule="evenodd">
        <path
            d="m95.594 422.03 10.625 10.625c-1e-5 25.984 0 40.735 0 67.312-7.0866 10.63-48.434 89.774-70.875 134.66-7.0866 14.173-7.0674 31.889 3.5625 46.062 7.0866 10.63 19.461 14.188 31.875 14.188h127.56c12.413 0 24.788-3.5576 31.875-14.188 10.63-14.173 10.649-31.889 3.5625-46.062-20.079-44.882-43.702-89.774-63.781-134.66v-67.312l10.281-10.281 0.34375-0.34375h-85.031z"
            fill="#fff" stroke="#fff" stroke-linecap="round" stroke-linejoin="round" stroke-width="2.5" />
        <path
            d="m96.969 532.38c-14.787 26.369-39.847 73.052-55.375 103.06-6.6402 12.833-6.6165 28.854 3.3438 41.688 6.6402 9.6248 18.244 12.844 29.875 12.844h119.5c11.631-2e-5 23.235-3.2189 29.875-12.844 9.9602-12.833 9.9839-28.854 3.3438-41.688-15.9-34.344-34.053-68.716-50.688-103.06h-79.875z"
            fill="#fff" stroke="#fff" stroke-linecap="round" stroke-linejoin="round" stroke-width=".625" />
        <path
            d="m157.5 432.36v68.75c22.554 47.696 45.217 95.36 67.704 143.07 6.2912 14.895-1.5559 32.256-15.165 39.888-12.133 8.1439-27.078 4.9945-40.742 5.5569h-29.004c17.309-2.2285 34.971-2.6488 52.048-6.0916 11.216-3.5013 24.842-9.7419 25.527-23.29 0.70514-14.462-8.3663-26.699-13.192-39.769l-52.176-119.37v-68.75l9.0374-9.0852h5.0319l-9.0693 9.0852z"
            fill="#fff" />
        <path
            d="m112.18 432.36v68.75c-22.554 47.696-49.689 91.036-72.176 138.75-6.2912 14.895-1.25 35 11.25 43.75 12.5 6.25 8.75 5 22.878 6.6385 9.668 0 45.586-0.61868 55.254-0.61868-17.309-2.2285-34.971-2.6488-52.048-6.0916-11.216-3.5013-24.842-9.7419-25.527-23.29-0.70514-14.462 8.3663-26.699 13.192-39.769l52.176-119.37v-68.75l-9.0374-9.0852h-5.0319l9.0693 9.0852z" />
    </g>
</svg>