<svg xmlns="http://www.w3.org/2000/svg" viewBox="0 0 225.16 218.43"><defs><style>.cls-1{fill:#0b04d9;}.cls-2{fill:#202020;}.cls-3{fill:#e6033c;}</style></defs><g id="Layer_2" data-name="Layer 2"><g id="Layer_1-2" data-name="Layer 1"><path class="cls-1" d="M.16,97.33c2.18-3.54,4.62-7,6.45-10.65,1.42-2.89,3.13-3.23,5.86-2.27,11,3.9,20.21,10.74,28.87,18.35a96.71,96.71,0,0,1,8.63,8.3c2.35,2.66,3,1.39,4-.94,8.71-18.5,16.92-37.25,26.44-55.32C90.62,35.49,102.71,17.33,118.57,2c2.6-2.52,4.05-2.66,7.19-.28,9,6.85,18.45,13.05,27.8,19.39,1.89,1.27,2.79,1.76.24,3.51-22.88,15.73-40.67,36.48-55.59,59.46-13.37,20.61-25.09,42.3-37.35,63.62-1.63,2.83-2.28,3-4.73.81-15.63-14.16-33.73-24.15-53.61-31a9.16,9.16,0,0,0-2.36-.17Z"/><path class="cls-2" d="M89.16,218.33c-.07-.27,0-.63-.23-.79-1.05-1-2.14-2-3.23-2.95a26.38,26.38,0,0,1,4,.55c8.17,2.37,14.46-1.56,14.64-9.16,0-1.87.17-2.63-2.24-1.56-9.72,4.3-16.45-.18-16.64-10.85-.06-3.33-.13-6.67,0-10a19,19,0,0,1,1.06-4,19.83,19.83,0,0,1,1.22,4.25c.19,3.65,0,7.33.15,11,.27,5.65,3.2,8.68,8.17,8.73s8-2.92,8.26-8.57c.2-4.16,0-8.34.15-12.5a10.12,10.12,0,0,1,1.06-2.92c.48.89,1.37,1.78,1.38,2.67.09,7.83,0,15.66,0,23.5,0,5.84-3.68,9.34-7.79,12.61Z"/><path class="cls-2" d="M.16,178.33c.48.12,1.36.21,1.38.36.57,6.71,3.57,2.93,6.33,1.65,5.68-2.64,12.83-.82,16.17,3.85,3.56,5,3.23,13.08-.7,17.66A13.14,13.14,0,0,1,7,204.45c-4.57-2.83-4.87-1.18-4.64,2.94.2,3.63-.09,7.29-.16,10.94-3.08.61-2-1.73-2-3C.14,203,.16,190.66.16,178.33ZM24,192.82c.05-6.56-4.24-11.12-10.59-11.27-6.52-.15-10.86,4.8-11,12.59-.12,5.3,4.77,9.43,11.11,9.38S24,199.15,24,192.82Z"/><path class="cls-2" d="M225.16,182.33c-3.29-.1-6.62-.53-9.86-.14-1.39.16-3.45,1.91-3.61,3.14s1.4,3.44,2.71,4c3.44,1.38,7.15,2.07,10.76,3v3c-3.45-1-6.94-1.89-10.33-3.07s-6.35-3.12-5.75-7.51,3.86-5,7.28-5.24c2.92-.22,5.87-.13,8.8-.18Z"/><path class="cls-2" d="M225.16,205.33c-4.69-.12-9.38-.17-14.06-.45-.65,0-1.22-1.28-1.82-2a15.44,15.44,0,0,1,2.85-.36c4.34.21,8.69.51,13,.78Z"/><path class="cls-3" d="M171.63,153.39c-28.17,0-49.66-16.58-54.21-42.06-3.18-17.84,1.38-34.21,11.33-48.86,6-8.89,13.44-16.88,20.48-25.06,4.19-4.88,9.76-6.22,15.86-4.16,4.7,1.6,9.34,3.45,13.87,5.48,4.07,1.82,4.64,4.36,1.71,8.17-4.64,6-8.79,12.46-13.1,18.75a5.82,5.82,0,0,0-1.13,2.74c-.09,1.75-.46,4.13.48,5.11s3.31.37,5,.07c6.68-1.15,13.38-3.77,20-3.47,21.69,1,35.62,21.48,30.77,44C217.6,137.64,197.12,153.39,171.63,153.39Zm13.72-33.16c-1.39-8.28-3.68-15.5-9.29-20.76-2.35-2.22-6.86-3.33-10.15-2.94-2.13.26-4.95,3.88-5.52,6.43-1.89,8.41,3.33,20,10.92,23.89a13.11,13.11,0,0,0,9.72.3C183.06,126.36,184,122.65,185.35,120.23Z"/><path class="cls-2" d="M151.5,186.46c0-5.66-.05-11.32.05-17,0-.77.78-1.53,1.2-2.3.38.79,1.06,1.56,1.09,2.36.12,3.66,0,7.34.17,11,0,.37,1.63,1.17,2,.94,9.1-5,16.48-1.14,17,9.12.22,4.49.1,9,0,13.5,0,.63-.68,1.25-1.05,1.88-.44-.6-1.26-1.19-1.28-1.79-.1-4.17.07-8.34,0-12.5-.18-6.6-3-10-7.94-10.09s-8.49,3.86-8.74,10.14c-.15,3.49.07,7-.11,10.49-.07,1.26-.85,2.49-1.31,3.73a14.34,14.34,0,0,1-1-3.52c-.11-5.32-.05-10.65-.05-16Z"/><path class="cls-2" d="M55.28,193c0,3.66,0,7.33,0,11a5.94,5.94,0,0,1-.88,2.06c-.46-.51-1.32-1.05-1.3-1.55.18-4.13-1.59-1.75-2.91-.93-6.34,3.95-14,3.23-18.19-1.7s-4.17-13.77,0-18.45c4.52-5,12.48-5.62,18.55-1.16,1.58,1.15,2.62,2.47,2.5-.87,0-.58.78-1.18,1.2-1.78.34.64,1,1.28,1,1.92.09,3.83,0,7.66,0,11.48ZM41.73,203.55c6,.08,11.16-4,11.24-8.78.12-8-4.17-13.16-10.94-13.15-6.32,0-10.71,4.58-10.69,11.11S35.54,203.46,41.73,203.55Z"/><path class="cls-2" d="M140.89,179.37c1.09.22,3.52.62,5.88,1.27.58.16.94,1.13,1.4,1.73a8.61,8.61,0,0,1-2.43.52c-3.1-.25-6.24-1.09-9.27-.79-1.67.16-3.15,2.16-4.72,3.33,1.3,1.52,2.32,3.56,4,4.45,2.28,1.22,5.06,1.49,7.56,2.34,3.56,1.22,6.23,3.36,5.91,7.55-.35,4.36-3.55,5.84-7.27,6a50.58,50.58,0,0,1-9.83-.59c-.91-.13-1.62-1.64-2.42-2.51,1,0,2.06,0,3.08.1,3.27.19,6.57.72,9.8.44,1.42-.13,3.68-1.77,3.82-2.93a6.28,6.28,0,0,0-2.21-4.86c-1.77-1.32-4.23-1.76-6.44-2.41-4.22-1.26-9-2.36-8.33-8.06C130.09,179.05,135.2,179.65,140.89,179.37Z"/><path class="cls-2" d="M74.27,187.4c0-4.16-.08-8.33.06-12.48,0-.9.83-1.77,1.28-2.65.42.79,1.3,1.66,1.18,2.36-.76,4.49,1.45,5.42,5.3,4.88.55-.08,1.22.74,1.84,1.15-.64.35-1.34,1.1-1.9,1-5.33-.93-5.5,2.16-5.23,6.12s0,8,.17,12c.08,1.26,1,2.51,1.65,3.68a11.34,11.34,0,0,0,1.7,1.85c-1,.12-2.66.71-3,.27-1.24-1.54-2.7-3.36-2.88-5.19-.42-4.29-.13-8.64-.13-13Z"/><path class="cls-2" d="M57.61,192.5c0-3.65,0-7.29,0-10.94a4.09,4.09,0,0,1,1.05-1.91c0-.07,1.12.35,1.12.56.11,5.14,2.14,1.17,3.38.72,1.39-.51,2.77-1.52,4.13-1.48,1.58,0,3.14,1,4.71,1.51-1.26.18-2.5.44-3.76.54-4.06.3-7.64,4.26-8,9.35-.29,4-.08,8-.29,11.93-.06,1.07-.85,2.09-1.3,3.14a10.33,10.33,0,0,1-1.07-3c-.14-3.48,0-7,0-10.45Z"/><path class="cls-2" d="M181.1,192.51c0-3.65,0-7.29.05-10.94,0-.66.6-1.31.92-2,.37.23,1.07.44,1.08.68.09,4.76,1.77,1.95,3.43.86a9.71,9.71,0,0,1,4.52-1.73c1.4-.08,2.87.81,4.31,1.28-1.2.28-2.39.64-3.6.84-4.31.7-7,3.4-7.56,7.47-.69,4.72-.54,9.56-.91,14.34-.07.91-.85,1.77-1.31,2.65a8.84,8.84,0,0,1-.88-2.54C181.05,199.81,181.1,196.16,181.1,192.51Z"/><path class="cls-2" d="M198,187.52c0-4.33-.06-8.66.05-13,0-.76.75-1.49,1.15-2.24.35.64,1.09,1.34,1,1.9-.74,4.44,1,6.08,5.41,5.36.47-.08,1.1.81,1.66,1.25-.68.33-1.43,1-2,.93-5.15-1-5.24,2.06-5,5.78.2,3.48,0,7,.07,10.49.06,2.31-1,5.29,2.92,5.77.32,0,.53,1,.79,1.48-.54.26-1.44.87-1.57.73-1.56-1.59-4-3.14-4.28-5-.63-4.41-.21-9-.21-13.47Z"/><path class="cls-2" d="M178.3,192.55c0,3.83,0,7.66-.05,11.48,0,.66-.65,1.3-1,1.95-.41-.59-1.16-1.18-1.17-1.78q-.12-11.49,0-23c0-.57.81-1.12,1.24-1.68.33.67.92,1.33.94,2C178.36,185.22,178.31,188.88,178.3,192.55Z"/><path class="cls-2" d="M177,170.25c.78.83,1.63,1.33,1.65,1.87a2,2,0,0,1-1.24,1.55,2,2,0,0,1-1.64-1.19C175.62,172,176.36,171.26,177,170.25Z"/></g></g></svg>