<svg xmlns="http://www.w3.org/2000/svg" viewBox="0 0 845.05 772.91"><defs><style>.cls-1{fill:#e9013b;}.cls-2{fill:#0b01de;}.cls-3{fill:#0b0b0b;}</style></defs><g id="Layer_2" data-name="Layer 2"><g id="Layer_1-2" data-name="Layer 1"><path class="cls-1" d="M642.72,545.52c-33.81-.73-66.28-6.68-96.38-22.55-37-19.48-64.33-48.38-80.82-86.7-19.25-44.7-19.9-90.78-6.82-137.27,11.19-39.79,31.7-74.73,56.84-107.11,10.78-13.88,21.47-28,33.54-40.69,10.55-11.1,21.71-21.9,35.79-29,8.29-4.2,16.73-3.89,25.34-2.54a168,168,0,0,1,64.33,24.45,24.46,24.46,0,0,1,3.48,2.79c6.43,6,7.08,9.18,1.77,16.3-7.31,9.81-15,19.35-22.83,28.75-13.31,15.95-24.18,33.31-31.2,52.93a38.38,38.38,0,0,0-2.13,10.21C623,264.49,629,269,638,266.1c9.93-3.22,19.86-6.47,29.8-9.66,52.73-16.9,105.16.61,136.91,45.64,18,25.56,23.64,54.15,21.11,84.8A159.43,159.43,0,0,1,806.92,451a182.32,182.32,0,0,1-58.73,64.58A165.57,165.57,0,0,1,675,542.81C664.3,544.11,653.49,544.64,642.72,545.52Zm-40-167.63c-.36,14.54,3.48,27.5,10.17,39.61,8,14.52,17.37,28,32.32,36.34,21.5,12,44-1.16,43.64-25.57-.33-20.53-6.73-39.49-16.67-57.29-5.72-10.26-12.44-19.8-23.35-25.16-13.94-6.85-31.32-5.62-39.85,6.9C603.78,360.44,602.67,369.33,602.77,377.89Z"/><path class="cls-2" d="M0,403.77c3.07-4,5.27-7.06,7.72-9.94,4.9-5.75,10.93-10.8,14.72-17.19,7.33-12.31,16.89-23.05,23.79-35.64,7.12-13,15-25.53,22.26-38.41,1.87-3.32,3.6-4.08,7.42-3.13,24.15,6,45.42,17.92,65.63,31.84a346.44,346.44,0,0,1,32.94,25.2c16.25,14.33,31.69,29.58,47.47,44.43l3.5,3.27c6-14.28,11.65-28.26,17.74-42,8.66-19.58,17.31-39.18,26.58-58.48,14.23-29.63,28-59.54,43.77-88.34,17.58-32.11,37.18-63.11,55.92-94.58,4.09-6.87,7.85-14,12.46-20.5,5.11-7.21,11-13.84,16.57-20.76,8.95-11.21,17.57-22.71,26.91-33.58,7.6-8.84,16-17,24.15-25.35C456.34,13.65,463.33,6.91,470.32,0c35.64,34.51,78,57.72,118.88,86.41a37.91,37.91,0,0,0-4.51,2.5c-12.55,9.21-25.56,17.88-37.46,27.87-15.65,13.16-30.47,27.31-45.54,41.15-7.1,6.52-14.26,13-20.84,20-6.32,6.76-11.83,14.27-17.9,21.27-3.37,3.89-7.3,7.29-10.75,11.11S445.6,218,442.58,222c-10,13.23-20,26.45-29.7,39.84-13.53,18.59-27.49,36.92-40.11,56.12-17.09,26-33.44,52.46-49.47,79.11-25.62,42.6-49.1,86.38-70.82,131.1-.51,1-1.22,2-1.69,3-1.84,4.14-4.11,3.71-7.19,1.1-13-11.09-25.7-22.73-39.42-32.93A551.89,551.89,0,0,0,50.62,418.59c-11.73-3.95-23.63-7.41-35.5-11C10.56,406.26,5.88,405.26,0,403.77Z"/><path class="cls-3" d="M49.7,713v58.6H41.8V634.05h7.76v20.88c10.3-12.77,22.43-19.17,37.89-19.21,15.23,0,28.08,4.56,37.6,16.86,14.29,18.46,11.5,50.75-5.54,66.3C103.91,733.12,71.32,735.92,49.7,713Zm75.4-29.89c0-2,.13-4,0-6a35.08,35.08,0,0,0-29-32.31c-19.68-3.35-34.77,4.07-42.06,20.35-3.78,8.45-3.68,17.39-4.52,26.31-.68,7.14,2.26,12.13,7.06,16.62a56,56,0,0,0,4.49,4C75,722.57,90.21,725.17,106,717.57,120,710.81,125.31,698.21,125.1,683.09Z"/><path class="cls-3" d="M408.1,636.92h8c.08,1.34.2,2.6.2,3.86,0,29.65.48,59.32-.29,89-.76,29.23-21.29,46.5-52.06,42.64-8-1-15.66-4.63-23.88-7.18,1.35-4,2.23-6.59,3.09-9.13,16.42,9.17,33.19,13.21,49.75,2.61,14.5-9.28,15.8-24.64,15.05-41.19-10.5,11.62-23.31,14.17-37.21,11.7-16.43-2.92-27.67-14.63-28.45-31.36-.94-20.08-.22-40.23-.22-60.69h7.25c0,1.85,0,3.79,0,5.73.19,17.65-.2,35.33.76,52.94.81,14.92,12.35,25.28,26.78,25.82,16.17.62,27.65-8.4,30.4-24.06a59.91,59.91,0,0,0,.82-9.92C408.15,670.86,408.1,654.07,408.1,636.92Z"/><path class="cls-3" d="M226.91,653.92V637h8v92.52H227V712.42c-12.8,13.89-27.65,19-44.82,17.22-11.49-1.18-21.29-5.94-28.94-14.86-15.06-17.56-14.49-49.64,1.14-65.74,10.13-10.44,22.72-13.66,36.77-13.28C203.17,636.1,209,638.82,226.91,653.92Zm.8,37.85c-1.19-7.35-1.71-14.88-3.71-22-4.24-15.08-15.72-24.21-30.91-25.69-16.51-1.61-30.66,5.47-37.64,19-4.34,8.43-5.18,17.54-3.94,26.73,1.56,11.59,6.71,21.24,17.38,27,17.45,9.41,39.55,4.87,52.94-10.59C225.44,702.07,228.3,697.76,227.71,691.77Z"/><path class="cls-3" d="M573.58,593h7.73v59.21c2.8-3,4.63-5.33,6.8-7.25,11.82-10.49,25.52-11.83,39.58-6.32S647.4,656.33,648,670.35c.78,19.61.2,39.28.2,59.22h-7.9V724.3c0-16.16.13-32.32-.09-48.48a44.79,44.79,0,0,0-1.92-12.71c-3.3-10.55-10.43-17.39-21.6-18.81-11.34-1.45-21,2-28,11.54-6.16,8.35-7.24,18-7.3,28-.09,15.14,0,30.29,0,45.74h-7.73Z"/><path class="cls-3" d="M563.28,646.76l-6.79,4.29c-6.17-5.19-13.5-6.35-21.12-6.16-7.3.17-14.64.27-21.86,1.15-4.92.6-8.29,3.86-9.64,8.94-1.46,5.45-.06,10.25,4.37,13.3a54.35,54.35,0,0,0,13.34,6.41c8.78,3,18,4.89,26.58,8.28,13.4,5.29,19,16.1,16.16,28.84-2,8.83-8.14,13.63-16.28,15.79-12.71,3.39-25.72,3.14-38.61,1.16-6-.93-11.1-4.23-15.06-9.78l7.36-4.72c6.35,7,14.54,7.81,23,7.53,6.14-.2,12.33-.23,18.41-1,6.28-.8,11.38-3.77,13-10.57,1.63-7-.63-13.58-7-17.19-5.42-3.06-11.5-5-17.39-7.13-8.55-3.11-17.54-5.21-25.7-9.1-8.8-4.19-12.27-13.06-10.72-22.7,1.41-8.66,7.32-15.25,17.25-16.08a221.72,221.72,0,0,1,36.26.07c5.13.43,10,4.37,15,6.72Z"/><path class="cls-3" d="M774.77,719.31c5.41-5.08,5.55-4.85,11.33-1.46,3.07,1.79,6.74,3.39,10.2,3.51a225.32,225.32,0,0,0,26.88-.61c6.29-.54,11.38-3.74,13-10.55s-.65-13.57-7.06-17.18c-5.41-3-11.49-5-17.38-7.13-8.55-3.1-17.54-5.21-25.7-9.09-8.8-4.19-12.27-13.08-10.7-22.71,1.4-8.66,7.32-15.25,17.25-16.07a220.61,220.61,0,0,1,36.26.08c5.13.42,10,4.37,14.95,6.72-.12.58-.23,1.15-.35,1.73l-6.88,4.53c-6.09-5.08-13.23-6.36-20.69-6.19s-15,.28-22.36,1.15c-4.91.59-8.27,3.88-9.62,9-1.46,5.46,0,10.25,4.38,13.3a55.25,55.25,0,0,0,13.34,6.41c8.78,3,18,4.88,26.59,8.28,13.38,5.28,19,16.1,16.13,28.85-2,8.82-8.15,13.61-16.28,15.78-12.72,3.38-25.72,3.11-38.62,1.16C783,727.81,778.67,724.5,774.77,719.31Z"/><path class="cls-3" d="M744.46,636.73h24.95v8.09H744.84c0,22.88-.27,45.34.15,67.78.14,7.55,2.36,9.27,12.89,9.42v7.29c-13.68,2.33-21.43-3.48-21.53-17.23-.26-33.16-.09-66.32-.07-99.47a7,7,0,0,1,.41-1.59h7.77Z"/><path class="cls-3" d="M310.63,611v25.64h24.79v8.16H310.67v30.35c0,10.82,0,21.65,0,32.47,0,11.93,1.52,13.57,13.26,14.42,0,2.39,0,4.82,0,7.24-13.57,2.25-21.35-3.3-21.49-16.78-.37-33.47-.12-66.94-.1-100.41,0-.29.26-.58.5-1.09Z"/><path class="cls-3" d="M252.34,652.49c10.54-14.37,24-20.22,41.45-14.35v7.74c-2-.36-3.77-.69-5.51-1-14.21-2.44-24.8,3-31.4,16-5,9.85-5.33,20.51-5.52,31.15-.22,12.45-.05,24.91-.05,37.56h-7.85V637h7.71V652Z"/><path class="cls-3" d="M677.57,637h7.7v17.1c11.26-15.71,24.73-21.91,42.42-15.92v7.22c-5.56-.41-11-1.81-16-1-11.83,1.92-19.29,10-22.41,21-2.52,8.82-3.34,18.26-3.81,27.48-.62,12.12-.15,24.28-.15,36.73h-7.74Z"/><path class="cls-3" d="M659.37,636.94h7.57v92.69h-7.57Z"/><path class="cls-3" d="M662.91,605.8c4.62,0,6.43,1.89,6.25,5.8s-2.37,5.29-6.13,5.3c-4.15,0-5.72-2.39-5.63-5.87C657.51,607.35,659.6,605.24,662.91,605.8Z"/></g></g></svg>