<svg xmlns="http://www.w3.org/2000/svg" viewBox="0 0 663.48 226.42"><defs><style>.cls-1{fill:#7ba04e;}.cls-2{fill:#bbc494;}</style></defs><g id="Layer_2" data-name="Layer 2"><g id="Layer_1-2" data-name="Layer 1"><path class="cls-1" d="M630.23.87c.91,1.43,2.17,2.75,2.68,4.31q15,45.8,29.85,91.61c.73,2.26,1.56,4.12-1.11,6-16.41,11.7-32.7,23.58-49,35.38a10,10,0,0,1-1.83.72L586.09,63A38,38,0,0,1,588,59.65c4.1-5.87,8.24-11.71,12.37-17.56a22.11,22.11,0,0,1,2.06,3.7c3.32,9.93,6.56,19.89,9.82,29.85,3.18,9.74,6.35,19.49,9.75,29.91,5.1-3.67,9.52-7.13,14.23-10.14,2.82-1.8,3-3.59,2-6.56C630.71,66.29,623.41,43.66,616,21.06Z"/><path class="cls-2" d="M630.23.87,616,21.06c-23.94,0-47.89-.09-71.84,0-1.36,0-3.56.81-3.94,1.79-2.3,6-4.19,12.13-6.47,19,2.8,0,4.75,0,6.69,0l59.86.25c-4.13,5.85-8.27,11.69-12.37,17.56A38,38,0,0,0,586.09,63L511.6,62.8h-6.33c.45-1.88.65-3.16,1.05-4.38,5.88-18,11.85-36,17.62-54.12.95-3,2.15-4.31,5.51-4.3,32.33.12,64.67.06,97,.11A19.49,19.49,0,0,1,630.23.87Z"/><path class="cls-1" d="M501.15,115.27c5.22-3,10.14-6.53,15.57-8.85,20.5-8.76,40.88.92,46.92,22.25a61.77,61.77,0,0,1-1,38.32c-7.71,21.68-33.42,35.33-57.29,17.94-.89-.65-1.83-1.22-3.3-2.2v43.69h-14.3V105.68c3.86,0,8.29-1.26,10.83.39C500.61,107.42,500.41,112.25,501.15,115.27Zm1,34.05c0,4.5.6,9.1-.13,13.48-1.25,7.44,2.77,10.86,8.52,13.83,16.56,8.55,32.3,2.66,38.09-14.72a48.16,48.16,0,0,0-.4-31.88c-3.27-9.2-10.39-14-20.18-14.28-8-.22-14.37,3.35-20.58,7.81-3.82,2.74-6,5.75-5.43,10.78S502.15,144.32,502.15,149.32Z"/><path class="cls-2" d="M255.76,113.5V66.37h14V190.24c-10.76,2-11,1.8-13.2-10.23a38.68,38.68,0,0,0-3.13,2.31c-11.22,10.05-24,13.54-38.35,8.23s-20.42-17-22.68-31c-2.31-14.39-.61-28.16,8.1-40.48a35.81,35.81,0,0,1,51.06-8.35C252.86,111.63,254.22,112.47,255.76,113.5Zm-.39,33.28c0-6,.09-12-.07-18,0-1.54-.35-3.59-1.36-4.51-12.63-11.53-32.16-13-42.45,5-6.2,10.78-5.81,22.42-2.53,33.86,4.18,14.59,17.7,21,31.86,15.73,10.77-4,14.55-9.34,14.55-20.58Z"/><path class="cls-2" d="M370.07,151.85H304.49c-2.51,25.18,25.14,35.5,57.2,22,.36.24.91.42,1.15.8,5.12,8.13,5,8.52-3.64,12.64-21.44,10.22-46,6.78-60.22-9.4-12-13.61-13.6-29.82-7.57-46.38,5.75-15.78,17.58-25.13,34.35-27.64,12.06-1.8,23.32.35,32.6,8.67C370,123.05,371.62,136.72,370.07,151.85ZM356.61,140.7c1.73-13.37-7.94-24.61-21.83-25.74-15.66-1.28-30.54,11.16-30.69,25.74Z"/><path class="cls-2" d="M92.07,148.4c.05-23.09,11.74-39.77,32.3-43.83,27.8-5.48,49.45,11.09,51.71,39.19,1.32,16.31-3,30.94-16.82,41-14,10.16-29.5,11.12-44.81,3.46C98.35,180.15,92.07,165.85,92.07,148.4Zm14.59-1.68c.64,4.87.89,8.88,1.73,12.75a26.83,26.83,0,0,0,23.5,21.31C142.66,182,152.81,176,157.74,165c4.48-10,4.59-20.33,1.18-30.67-3.77-11.44-12.55-18.32-23.38-18.53-12.88-.26-21.66,5.5-25.95,17.68C108,137.92,107.5,142.77,106.66,146.72Z"/><path class="cls-1" d="M389.42,105.73h14.8v15.09c0,13-.23,26,.13,39,.43,15.82,10.17,23.34,25.19,19.81,8.58-2,14.45-8,19.8-14.47.89-1.07.78-3.13.78-4.74.06-16.33,0-32.66,0-49v-5.71h14.17v84.87H452.91c-.49-4.5-1-9-1.56-14.45-2.42,2.28-4.18,4-6,5.6-7.9,7.29-17,11.47-28,11.14-15.14-.46-25-9-27.11-24.06a90.1,90.1,0,0,1-.84-11.95C389.37,140,389.42,123.22,389.42,105.73Z"/><path class="cls-2" d="M71.52,125.29q-13.94-12.66-31.38-8.84c-19,4.19-29.07,22.66-23.28,42.13s29.19,28.3,48,17.89c1.46-.81,2.84-1.74,4.3-2.54,1.82-1,4.7-3.16,5.33-2.64,2.22,1.83,3.82,4.51,5.33,7.06.35.6-.28,2.31-1,2.89C56.76,200,19.71,195.71,6.4,172.34-8.84,145.6,3.32,107.9,41,103.8c11.92-1.3,22.79.7,32.63,7.7,5.61,4,5.64,4,1.48,9.45C74.14,122.27,73,123.49,71.52,125.29Z"/></g></g></svg>