<svg id="Layer_1" data-name="Layer 1" xmlns="http://www.w3.org/2000/svg" viewBox="0 0 933.61 855.67">
  <defs>
    <style>
      .cls-1 {
        fill: #ff9774;
      }

      .cls-2 {
        fill: #6a98ff;
      }

      .cls-3 {
        fill: #ff94b8;
      }

      .cls-4 {
        fill: #ffe36a;
      }

      .cls-5 {
        fill: #ff4a4f;
      }

      .cls-6 {
        fill: #9500d4;
      }

      .cls-7 {
        fill: #ffb04a;
      }
    </style>
  </defs>
  <polygon class="cls-1" points="376.57 250.6 252.48 396.37 64.19 361.79 0 181.44 124.09 35.67 312.37 70.25 376.57 250.6"/>
  <polygon class="cls-2" points="791.37 540.13 857.22 608.84 830.64 700.23 738.2 722.9 672.35 654.19 698.93 562.8 791.37 540.13"/>
  <polygon class="cls-3" points="342.01 529.9 193.45 575.45 79.72 469.56 114.56 318.13 263.12 272.58 376.85 378.47 342.01 529.9"/>
  <polygon class="cls-4" points="871.95 172.03 784.62 151.25 758.96 65.23 820.62 0 907.95 20.79 933.61 106.8 871.95 172.03"/>
  <polygon class="cls-5" points="352.78 235.31 293.2 264 278.49 328.48 319.72 380.18 385.85 380.18 427.08 328.48 412.37 264 352.78 235.31"/>
  <polygon class="cls-6" points="670.58 623.91 588.1 619.65 522.17 669.4 503.66 749.89 541.21 823.46 617.26 855.67 696.23 831.46 741.16 762.16 731.03 680.19 670.58 623.91"/>
  <polygon class="cls-7" points="707.67 234.88 515.36 338.89 701.59 453.43 707.67 234.88"/>
</svg>
