<svg id="Layer_1" data-name="Layer 1" xmlns="http://www.w3.org/2000/svg" viewBox="0 0 80.08 129.59"><defs><style>.cls-1{fill:#fff;}</style></defs><g id="Layer_2" data-name="Layer 2"><g id="Layer_1-2" data-name="Layer 1-2"><path class="cls-1" d="M33.58,129.17H0V0H80.08V129.17H45.47V109l3.3-.35-.69-7.41h21V93.93H47.53c-.06-1.33-.15-2.43-.15-3.52,0-13.17-.13-26.34.08-39.51A27.24,27.24,0,0,0,44.27,37c-1.07-2-2-4.52-5.23-4.64-3.68,3.76-6.34,8.29-6.45,13.54-.31,14.19-.13,28.4-.14,42.59v5.63H10.59v7.17H31.65l-.77,7.09,2.7.7ZM51.7,60.64l.52-.17V58.18c0-9.81.13-19.61-.08-29.41a25.67,25.67,0,0,0-1.75-9c-1.71-4.16-4.2-8-6.27-12a7.06,7.06,0,0,0-4.27-3.65c-2.91.59-4,3-5.34,5-3.92,5.66-7,11.72-7.12,18.73-.21,10.31-.06,20.64-.05,31A19.61,19.61,0,0,0,27.61,61l2.81-3.45c0-3.93-.09-8,0-12a22.58,22.58,0,0,1,6-14.56c2.34-2.69,4.41-2.72,6.71-.1a22.43,22.43,0,0,1,6,14.41c.12,4.12,0,8.24,0,12.16Zm8-36.51c-.56.5-1.21.81-1.39,1.29C57.07,28.85,55,32.28,54.87,35.8c-.49,9.61-.2,19.26-.14,28.9a4.32,4.32,0,0,0,.85,2.84c2.76,2.65,5.71,5.11,8.89,7.91.1-1,.18-1.44.18-1.92,0-12.31.08-24.61,0-36.92a12.54,12.54,0,0,0-.78-4.54c-1-2.73-1.66-5.76-4.15-7.94ZM14.84,74.9l.58.23c2.44-2.13,4.83-4.34,7.34-6.38a5.25,5.25,0,0,0,2.15-4.4c-.06-9-.1-18.07,0-27.11,0-4.22-1.79-7.8-3.41-11.49-.32-.7-.69-1.38-1-2.07l-1,.39a10.48,10.48,0,0,0-1,1.49c-1.78,3.8-3.83,7.5-3.65,11.93.14,3.44,0,6.88,0,10.32Q14.86,61.36,14.84,74.9Zm54.34,16V83.49L49.44,64.37V90.86Zm-58.64-.11H30.29V64.36L10.54,83.52Zm13.69,12.82H15.61l-3.46,12.61,2.49.54.39,4h9.65l.39-4,2.53-.47Zm30.3,13,.35,4h9.69l.31-4,2.52-.51c-1.16-4.25-2.3-8.4-3.45-12.62H55.36c-1.2,4.42-2.31,8.49-3.44,12.67Z"/><path d="M33.58,109.12l-2.7-.7.77-7.09H10.59V94.16H32.45V88.53c0-14.19-.17-28.4.14-42.59.11-5.25,2.77-9.78,6.45-13.54,3.24.12,4.16,2.68,5.23,4.64A27.07,27.07,0,0,1,47.46,50.9c-.21,13.17-.08,26.34-.08,39.51,0,1.09.09,2.19.15,3.52H69.05v7.27h-21l.69,7.41-3.3.35v20.21h-2V109.08H41.33v20.09H39.27v-20H35.65v20H33.58v-20"/><path class="cls-1" d="M35.65,129.17v-20h3.62v20Z"/><path class="cls-1" d="M41.33,129.17V109.08H43.4v20.09Z"/><path d="M51.7,60.64l-2.59-3.15c0-3.92.1-8,0-12.16a22.43,22.43,0,0,0-6-14.41c-2.3-2.62-4.37-2.59-6.71.1a22.57,22.57,0,0,0-5.93,14.45c-.12,4,0,8.08,0,12l-2.81,3.45a19.61,19.61,0,0,1-.27-2.16c0-10.32-.16-20.65.05-31,.13-7,3.2-13.07,7.12-18.73C36,7,37,4.63,39.9,4a7.06,7.06,0,0,1,4.27,3.65c2.07,4,4.56,7.86,6.27,12a25.67,25.67,0,0,1,1.75,9c.21,9.8.08,19.6.08,29.41v2.29Z"/><path d="M59.72,24.13c2.49,2.18,3.12,5.21,4.2,7.94a12.54,12.54,0,0,1,.78,4.54V73.53c0,.48-.08,1-.18,1.92-3.18-2.8-6.13-5.26-8.89-7.91a4.32,4.32,0,0,1-.85-2.84c-.06-9.64-.35-19.29.14-28.9.17-3.52,2.2-6.95,3.46-10.38C58.51,24.94,59.16,24.63,59.72,24.13Z"/><path d="M14.84,74.9V47.81c0-3.44.1-6.88,0-10.32-.18-4.43,1.87-8.13,3.65-11.93a10.48,10.48,0,0,1,1-1.49l1-.39c.34.69.71,1.37,1,2.07C23.12,29.44,25,33,24.91,37.24c-.1,9-.06,18.07,0,27.11a5.25,5.25,0,0,1-2.15,4.4c-2.51,2-4.9,4.25-7.34,6.38Z"/><path d="M69.18,90.86H49.44V64.37L69.18,83.49Z"/><path d="M10.54,90.75V83.52L30.29,64.36V90.75Z"/><path d="M24.23,103.57l3.37,12.6-2.53.47-.39,4H15l-.39-4-2.49-.54,3.46-12.61Z"/><path d="M54.53,116.62l-2.61-.4c1.13-4.18,2.24-8.25,3.44-12.67H64c1.15,4.22,2.29,8.37,3.45,12.62l-2.52.51-.31,3.95H54.88Z"/><rect class="cls-1" x="33.33" y="109.08" width="12.35" height="20.51"/></g></g><rect class="cls-1" x="33.58" y="109.17" width="11.32" height="20.42"/><rect x="33.82" y="109" width="2.52" height="20.59"/><rect x="38.34" y="108.78" width="2.52" height="21.03"/><rect x="42.84" y="108.65" width="2.52" height="20.94"/></svg>