<svg xmlns="http://www.w3.org/2000/svg" viewBox="0 0 80.08 648"><defs><style>.cls-1{fill:#fff;}</style></defs><g id="Layer_2" data-name="Layer 2"><g id="Layer_1-2" data-name="Layer 1"><path class="cls-1" d="M33.58,648H0V518.83H80.08V648H45.47V627.79l3.3-.35L48.08,620h21v-7.27H47.53c-.06-1.33-.15-2.42-.15-3.52,0-13.17-.13-26.34.08-39.51a27.17,27.17,0,0,0-3.19-13.86c-1.07-2-2-4.52-5.23-4.64-3.68,3.77-6.34,8.29-6.45,13.54-.31,14.2-.13,28.4-.14,42.6V613H10.59v7.17H31.65l-.77,7.09,2.7.7ZM51.7,579.48l.52-.17V577c0-9.8.13-19.61-.08-29.41a25.55,25.55,0,0,0-1.75-9c-1.71-4.16-4.2-8-6.27-12a7.09,7.09,0,0,0-4.27-3.66c-2.91.59-4,3-5.34,5-3.92,5.66-7,11.72-7.12,18.73-.21,10.32-.06,20.64-.05,31a20.7,20.7,0,0,0,.27,2.17l2.81-3.46c0-3.93-.09-8,0-12a22.57,22.57,0,0,1,5.93-14.45c2.34-2.68,4.41-2.72,6.71-.1a22.48,22.48,0,0,1,6,14.41c.12,4.12,0,8.24,0,12.16Zm8-36.51c-.56.49-1.21.8-1.39,1.28-1.26,3.44-3.29,6.87-3.46,10.38-.49,9.61-.2,19.26-.14,28.9a4.35,4.35,0,0,0,.85,2.85c2.76,2.65,5.71,5.11,8.89,7.9.1-1,.18-1.44.18-1.92,0-12.31.08-24.61,0-36.91a12.7,12.7,0,0,0-.78-4.55C62.84,548.18,62.21,545.15,59.72,543ZM14.84,593.73l.58.24c2.44-2.14,4.83-4.34,7.34-6.39a5.23,5.23,0,0,0,2.15-4.4c-.06-9-.1-18.07,0-27.1,0-4.23-1.79-7.81-3.41-11.49-.32-.71-.69-1.39-1-2.08l-1,.39a11.08,11.08,0,0,0-1,1.49c-1.78,3.8-3.83,7.5-3.65,11.93.14,3.44,0,6.88,0,10.33Q14.86,580.18,14.84,593.73Zm54.34,16v-7.37L49.44,583.2v26.49Zm-58.64-.1H30.29V583.2L10.54,602.35ZM24.23,622.4H15.61L12.15,635l2.49.54.39,4h9.65l.39-4L27.6,635Zm30.3,13.05.35,4h9.69l.31-4,2.52-.5c-1.16-4.26-2.3-8.41-3.45-12.62H55.36c-1.2,4.41-2.31,8.49-3.44,12.66Z"/><path d="M33.58,648V628l-2.7-.7.77-7.09H10.59V613H32.45v-5.62c0-14.2-.17-28.4.14-42.6.11-5.25,2.77-9.77,6.45-13.54,3.24.12,4.16,2.68,5.23,4.64a27.17,27.17,0,0,1,3.19,13.86c-.21,13.17-.08,26.34-.08,39.51,0,1.1.09,2.19.15,3.52H69.05V620h-21l.69,7.41-3.3.35V648H43.4V627.91H41.33V648H39.27V628H35.65v20Z"/><path class="cls-1" d="M35.65,648V628h3.62v20Z"/><path class="cls-1" d="M41.33,648V627.91H43.4V648Z"/><path d="M51.7,579.48l-2.59-3.16c0-3.92.1-8,0-12.16a22.48,22.48,0,0,0-6-14.41c-2.3-2.62-4.37-2.58-6.71.1a22.57,22.57,0,0,0-5.93,14.45c-.12,4,0,8.08,0,12l-2.81,3.46a20.7,20.7,0,0,1-.27-2.17c0-10.32-.16-20.64.05-31,.13-7,3.2-13.07,7.12-18.73,1.39-2,2.43-4.4,5.34-5a7.09,7.09,0,0,1,4.27,3.66c2.07,4,4.56,7.85,6.27,12a25.55,25.55,0,0,1,1.75,9c.21,9.8.08,19.61.08,29.41v2.3Z"/><path d="M59.72,543c2.49,2.18,3.12,5.21,4.2,7.93a12.7,12.7,0,0,1,.78,4.55c0,12.3,0,24.6,0,36.91,0,.48-.08,1-.18,1.92-3.18-2.79-6.13-5.25-8.89-7.9a4.35,4.35,0,0,1-.85-2.85c-.06-9.64-.35-19.29.14-28.9.17-3.51,2.2-6.94,3.46-10.38C58.51,543.77,59.16,543.46,59.72,543Z"/><path d="M14.84,593.73q0-13.54,0-27.08c0-3.45.1-6.89,0-10.33-.18-4.43,1.87-8.13,3.65-11.93a11.08,11.08,0,0,1,1-1.49l1-.39c.34.69.71,1.37,1,2.08,1.62,3.68,3.45,7.26,3.41,11.49-.1,9-.06,18.06,0,27.1a5.23,5.23,0,0,1-2.15,4.4c-2.51,2-4.9,4.25-7.34,6.39Z"/><path d="M69.18,609.69H49.44V583.2l19.74,19.12Z"/><path d="M10.54,609.59v-7.24L30.29,583.2v26.39Z"/><path d="M24.23,622.4,27.6,635l-2.53.47-.39,4H15l-.39-4L12.15,635l3.46-12.61Z"/><path d="M54.53,635.45l-2.61-.4c1.13-4.17,2.24-8.25,3.44-12.66H64c1.15,4.21,2.29,8.36,3.45,12.62l-2.52.5-.31,4H54.88Z"/><rect class="cls-1" width="80.08" height="518.83"/></g></g></svg>