<svg xmlns="http://www.w3.org/2000/svg" viewBox="0 0 683.19 365.55"><defs><style>.cls-1{fill:#7e1515;}.cls-2{fill:#595959;}.cls-3{fill:#060606;}</style></defs><g id="Layer_2" data-name="Layer 2"><g id="Layer_1-2" data-name="Layer 1"><path class="cls-1" d="M196.78,131.19c-12,0-23,.06-34-.08a7.55,7.55,0,0,1-4.37-1.7C132.18,107.14,106.75,84,85.07,57.07c-7.52-9.33-14.71-19-18.95-30.35a41.63,41.63,0,0,1-2.63-11.56C63,8.45,66.22,4.23,72.71,2,80.31-.53,88.16-.3,96,.71c23.44,3,45.59,10.7,67.5,19.15,29,11.19,57,24.58,84.57,38.83,17.24,8.91,34.12,18.54,51,28.19,14.28,8.17,28.3,16.77,42.38,25.28,8.54,5.16,17,10.49,25.44,15.77,1.19.75,2.29,1.65,3.85,2.79-8.5,1.53-15.1-.63-22-4.78-32.27-19.31-65.95-35.63-102.54-45.19-12.12-3.17-24.4-5.36-37-4.55a50.22,50.22,0,0,0-8.41,1C186.34,80.6,180,90.82,184.46,104.93c2.41,7.7,6.49,14.88,9.87,22.27A45,45,0,0,0,196.78,131.19Z"/><path class="cls-2" d="M330.46,252.54a30.37,30.37,0,0,1,20.45,3.53c25.06,13.9,51.26,25.18,79,32.57,14.2,3.79,28.6,6.42,43.42,4.53,5.35-.68,10.47-2.2,14.63-5.76,7.91-6.78,7.31-15.43,4.81-24.3-1-3.48-2.44-6.82-3.83-10.64,1.65-.13,2.89-.32,4.14-.32,12.16,0,24.32-.09,36.48.06a8.69,8.69,0,0,1,5.34,1.71c23.35,20.89,45.92,42.57,63.42,68.79,4.2,6.29,7,13.52,10.13,20.47a19.2,19.2,0,0,1,1.19,7.31c.16,6.75-2.87,10.89-9.35,13.06-8.12,2.71-16.47,2.2-24.73,1.14-18.93-2.42-37-8.28-54.83-14.73-33.18-12-65-27.08-96.23-43.35-20.89-10.88-41.22-22.85-61.74-34.45-8.37-4.74-16.58-9.75-24.83-14.7C335.56,256,333.31,254.43,330.46,252.54Z"/><path class="cls-3" d="M298.16,161.94H281.55c-1.05-12.71-.09-24.75,8.76-34.74,6-6.77,13.95-10.26,22.74-11.09,14.28-1.36,25.26,4.66,32.57,16.85,2,3.28,2.64,7.35,3.74,11.11a28.57,28.57,0,0,1,.48,4.47c1.28,11-2.12,20.34-9.21,28.87-10.93,13.14-21.37,26.69-31.94,40.12-1.48,1.87-2.58,4-4.38,6.88h5.59c27.17,0,54.33,0,81.49,0,4.44,0,8.45-.63,10.53-5,2.32-4.92,2.56-10.05-.55-14.7a9.8,9.8,0,0,0-5.11-3.56,48.3,48.3,0,0,0-9.33-1.28c-6.27-.54-12.62-.53-18.81-1.5-7.49-1.18-12.37-5.52-14.36-13.27a48.88,48.88,0,0,1-.54-21.15c1.62-9.07,7.63-13.65,16-15.55a47.29,47.29,0,0,1,10.36-1q39.24-.1,78.49,0c14.55,0,25.29,9.08,26.07,23.32.64,11.55-6.35,22.08-19.08,24.39-6.15,1.11-12.59.65-18.89.83-3.29.09-6.58,0-10.31,0v42H420.71V161H413.9c-12.17,0-24.33-.05-36.5,0-4.25,0-6.46,1.2-7.34,5.2-1,4.64-1.51,9.51.75,14.08,1.58,3.19,4,5.28,7.72,5.41,6.64.24,13.29.43,19.94.52a17,17,0,0,1,14.37,7.53c9.12,12.8,6.1,28.68-1.5,39.15-2.73,3.76-7,5.27-11.85,5.25-34.66-.09-69.33,0-104,0H281.34c0-5.06-.84-10.17.28-14.81.82-3.4,4-6.34,6.48-9.22,12.4-14.5,25-28.79,37.28-43.43,4.76-5.7,9.14-11.88,9.23-19.94.12-10.19-7.82-18.85-17.64-19.06-10.7-.24-18.65,7.47-18.81,18.27C298.11,153.73,298.16,157.55,298.16,161.94Z"/><path class="cls-3" d="M118.44,185.16v13.45c-3.85,0-7.61-.06-11.37,0-6,.12-12,.19-18,.53-4.63.26-7.14,2.41-7.44,7-.38,5.93-.09,11.9-.09,18H135V147.38c4.24,0,8.31-.66,12,.23,2.37.57,4.68,3.08,6.19,5.29,5.07,7.4,9.78,15,14.59,22.6,6.74,10.59,13.44,21.2,21.13,31.61V147.58h16.2v90.21c-9.68,1.34-16.74-2.06-21.87-10.26-9.39-15-19-29.89-28.55-44.81-.49-.77-1-1.5-2.2-3.21V237.8c-1.53.11-2.79.28-4.06.28q-33.75,0-67.5,0a12.33,12.33,0,0,1-1.49,0c-9.32-1.18-10.54-.71-10.27-10.33.26-9.16-.06-18.33.11-27.5.06-2.7.93-5.38,1.45-8.18-.47-2.84-1.34-6-1.44-9.14-.23-7.12-.08-14.25-.08-21.82-8.29-.27-16.2-.61-24.12-.76-6.83-.13-13.67,0-20.5-.07-3.69-.07-6.24,1.65-7.28,4.91-1.51,4.79-1.86,9.72.27,14.55,1.55,3.49,4.1,5.66,7.92,5.88,5.64.32,11.31.77,16.94.53,13.53-.59,18.82,7,21.9,16.85,3.39,10.89.12,20.75-5.77,29.63-1.82,2.74-6.3,5.08-9.65,5.21-14.8.56-29.63.24-44.76.24v-13c9.54,0,19,.05,28.44,0a63.2,63.2,0,0,0,8.9-.72c6.26-.93,9.63-4.88,9.72-11.09.12-7.45-3-11.88-9.53-13a99.2,99.2,0,0,0-9.89-1c-5.3-.4-10.59-.81-15.9-1-6.65-.28-13.57-7-14.92-13.76a55.6,55.6,0,0,1,.17-21.93c1-5.17,4-8.59,8.37-11.15,5-3,10.63-3.89,16.21-3.92,33.84-.15,67.67-.06,101.5,0a17.48,17.48,0,0,1,1.8.24v13.31H82.21c0,5.89-.12,11.19,0,16.48.14,4.29,2,6.55,6.25,6.94,6,.55,11.94.63,17.92.79C110.37,185.24,114.34,185.16,118.44,185.16Z"/><path class="cls-3" d="M616.92,147.32v31.76H603.15V162.8c-6.84-.15-13.33-1.13-19.55.69a12.58,12.58,0,0,0-9.09,9.78c-1.31,6.64-3,13.41-2.81,20.08.15,7,1.95,14.06,3.69,20.93a9.74,9.74,0,0,0,5,5.7,35.56,35.56,0,0,0,12.33,3.18c10,.44,20,.14,30.15.14,1.86-10.28-1.8-21,2.23-30.36-.63-2.95-1.61-5.57-1.68-8.21-.21-8.66-.13-17.32-.09-26,0-7.55,4.21-11.74,11.64-11.75,16,0,31.94,0,48.2,0v14.36H636.38c0,6.2-.21,12,.07,17.72.18,3.72,2.49,5.79,6.69,6,7,.39,14,.41,20.92.55,2.65.06,5.29,0,8.26,0v13.54H649.05c-11.78,0-13.5,1.73-13.5,13.57v10.44h47.64v14.87H678.4c-30.48,0-61-.14-91.46.07-12.52.09-22.64-6.5-26.92-18.17-7.45-20.26-7.31-40.26,3.42-59.46a24.67,24.67,0,0,1,21.46-13.11C595.37,147,605.87,147.32,616.92,147.32Z"/><path class="cls-3" d="M482.16,238H464.51c.3-1.87.26-3.65.86-5.17,3.79-9.55,7.88-19,11.57-28.58q9.26-24.1,18.1-48.36c2.57-7.12,4.08-8.52,11.72-8.52,5.16,0,10.33.19,15.48-.05,3.86-.18,5.8,1.78,7,5q4.31,11.37,8.61,22.74Q544,191.3,550.1,207.57c3.06,8.19,6.11,16.39,9,24.64.58,1.65.4,3.56.6,5.65H542.34c-1.84-4.69-3.84-9.72-5.77-14.78q-8.67-22.76-17.3-45.54c-1.11-2.94-2.06-5.95-3.3-8.83-.67-1.57-1.23-4-3.63-3.23a7.67,7.67,0,0,0-4.26,3.4c-2.22,4.79-4,9.8-5.83,14.75q-6.6,17.7-13.14,35.41C486.81,225.26,484.54,231.48,482.16,238Z"/><path class="cls-3" d="M211.78,147.41c13.68,0,26.83-.74,39.79,3.79,14.51,5.07,27,21.43,25.89,36.44-.68,9.06.71,18.25-3,27C271,223,265,228.32,257,232.51c-14.44,7.58-29.76,5-45.23,5.64ZM224.55,225c14.28.71,26.82-1.43,34-15.18,6.27-12,6-24.09-1.47-35.44-7.68-11.66-19-15.18-32.52-12.82Z"/><path class="cls-3" d="M74.79,248.1v31.13l-4.72.43V266.4h-5.6v12.84l-4.77.4V248.42h4.52v12.87l5.47.33v-13.1Z"/><path class="cls-3" d="M175.47,261.26V248.45l4.72-.29V279.3h-4.67V266.45h-5.8v12.81h-4.54V248.44h4.57v12.82Z"/><path class="cls-3" d="M216.54,264c0,3,.16,6,0,9-.32,4.75-2.83,7.16-7.18,7.25-4.15.08-7.18-2.07-7.44-6.42a159.35,159.35,0,0,1,.07-19.91c.29-4.3,3.47-6.52,7.53-6.34s6.7,2.64,7,7c.22,3.14,0,6.31,0,9.47Zm-10-.62h0a82.82,82.82,0,0,0,.14,9.46c.11,1,1.79,1.8,2.75,2.69.76-.9,2.13-1.78,2.17-2.7.2-6,.22-12,0-17.93,0-.93-1.47-1.8-2.25-2.7-1,.9-2.57,1.71-2.71,2.73A64.28,64.28,0,0,0,206.53,263.35Z"/><path class="cls-3" d="M101.46,258.06H97.4c-.18-1.29,0-2.73-.62-3.77a4.28,4.28,0,0,0-2.84-2c-.65-.06-2.08,1.36-2.1,2.14q-.24,9.48,0,19c0,.73,1.63,2.1,2.26,2,1-.2,2.52-1.33,2.62-2.2.25-2.29,1.37-4.84-1.19-6.88-.75-.6-.65-2.27-1-3.85h6.83c0,3.8.24,7.74-.08,11.64s-3,5.92-6.71,6.08c-4.07.18-7-1.76-7.32-5.82A186.59,186.59,0,0,1,87,254.44c.18-4.66,3.19-7.05,7.48-6.87s6.51,2.5,6.93,7C101.54,255.52,101.46,256.52,101.46,258.06Z"/><path class="cls-3" d="M120,279.33h-4.59V266.49H109.6v12.77h-4.73V248.47l4.62-.34v13.23h5.65V248.53l4.81-.47Z"/><path class="cls-3" d="M198.67,264c0,3.16.2,6.34,0,9.47-.35,4.37-2.93,6.63-7.14,6.74s-7.06-2.08-7.28-6.46c-.34-6.46-.37-13-.1-19.43.18-4.37,3-6.68,7.13-6.74,4.42-.07,7.08,2.28,7.43,7,.23,3.14,0,6.32,0,9.47Zm-4.68-.16h.07c0-2.81.08-5.62,0-8.42-.07-1.74-.64-3.64-2.82-3.11a4.08,4.08,0,0,0-2.47,2.93c-.24,5.77-.23,11.56,0,17.33,0,1,1.62,2,2.49,3,.91-.93,2.48-1.78,2.61-2.81A73.31,73.31,0,0,0,194,263.83Z"/><path class="cls-3" d="M130.42,270.67h3.34a5.3,5.3,0,0,1,.62.76,24,24,0,0,0,2.27,4c.24.3,2.43-.32,2.47-.68.22-1.71.56-3.77-.18-5.16-1.05-2-3.26-3.32-4.49-5.24-1.63-2.58-3.54-5.34-4-8.23-.81-5.15,2.1-8.35,6.67-8.59s7,2.41,7.31,8.16c-2.12.64-4,1.21-4.68-2-.15-.67-1.94-1.51-2.76-1.32s-1.9,1.8-1.71,2.46A20.84,20.84,0,0,0,138,260.9c1.4,2,3.59,3.51,5,5.54,3,4.41,2,10.9-1.78,12.85a7.85,7.85,0,0,1-8.1-.26C130.14,277.19,129.94,274.25,130.42,270.67Z"/><path class="cls-3" d="M49.3,275.1c-.1,1.81-.16,2.94-.22,4.24H36V248.52H49v3.84l-8,.53v8.29l6.28.72V266l-6.34.28v8.78Z"/><path class="cls-3" d="M162,258h-4.35c-.14-1.46,0-2.9-.48-4a3.36,3.36,0,0,0-2.55-1.7c-.8,0-2.19,1.26-2.21,2q-.27,9.49,0,19c0,.77,1.47,2.18,2.09,2.09a4,4,0,0,0,2.75-2c.51-1.31.25-2.93.33-4.77l4.38-.29a54.57,54.57,0,0,1-.34,6.11c-.65,4-3.32,6-7.39,5.78-3.79-.17-6.52-2.28-6.68-6.08-.3-6.65-.3-13.33-.06-20,.15-4.07,2.9-6.4,6.81-6.58,4.11-.19,6.8,2.08,7.46,6.38C162,255.07,161.92,256.24,162,258Z"/><path class="cls-3" d="M24.27,275.12h8v4.22H19.64V248.43H32.33l.18,3.87-8.15.6v8.43l6.06.42.42,4.19-6.57.43Z"/><path class="cls-3" d="M220,248.39l4.4-.28v26.8l8,.39.35,4H220Z"/><path class="cls-3" d="M8.82,275h8l.22,4.3H4.37V248.46l4.45-.37Z"/><path class="cls-3" d="M78.78,248.41h4.46V279.3l-4.46.26Z"/></g></g></svg>