<svg xmlns="http://www.w3.org/2000/svg" viewBox="0 0 1500 501.97"><defs><style>.cls-1,.cls-29,.cls-3{fill:none;stroke-miterlimit:10;}.cls-1{stroke:#5c6c96;stroke-width:30px;}.cls-2{font-size:25px;}.cls-12,.cls-2{fill:#fff;font-family:MyriadPro-Regular, Myriad Pro;}.cls-3{stroke:#ec475b;}.cls-29,.cls-3{stroke-width:3px;}.cls-4{fill:#ec475b;}.cls-5{letter-spacing:0.02em;}.cls-6{letter-spacing:-0.01em;}.cls-7{letter-spacing:0em;}.cls-8{letter-spacing:-0.01em;}.cls-9{letter-spacing:-0.01em;}.cls-10{letter-spacing:0em;}.cls-11{letter-spacing:0.01em;}.cls-12{font-size:20px;}.cls-13{letter-spacing:0em;}.cls-14{letter-spacing:-0.03em;}.cls-15{letter-spacing:0.01em;}.cls-16{letter-spacing:0em;}.cls-17{letter-spacing:-0.01em;}.cls-18{letter-spacing:0em;}.cls-19{letter-spacing:-0.01em;}.cls-20{letter-spacing:-0.01em;}.cls-21{letter-spacing:-0.01em;}.cls-22{letter-spacing:0em;}.cls-23{letter-spacing:-0.01em;}.cls-24{letter-spacing:-0.03em;}.cls-25{letter-spacing:-0.01em;}.cls-26{letter-spacing:-0.03em;}.cls-27{letter-spacing:-0.01em;}.cls-28{letter-spacing:-0.04em;}.cls-29{stroke:#1280bc;}.cls-30{fill:#1280bc;}.cls-31{letter-spacing:-0.07em;}.cls-32{letter-spacing:0.02em;}.cls-33{letter-spacing:0em;}.cls-34{letter-spacing:0em;}.cls-35{letter-spacing:-0.01em;}.cls-36{letter-spacing:-0.01em;}.cls-37{letter-spacing:-0.03em;}</style></defs><g id="Layer_2" data-name="Layer 2"><g id="Layer_1-2" data-name="Layer 1"><line class="cls-1" y1="250.5" x2="1500" y2="250.5"/><text class="cls-2" transform="translate(8.42 258.75)">July</text><line class="cls-3" x1="72.5" y1="244" x2="72.5" y2="109"/><circle class="cls-3" cx="73" cy="251" r="7.5"/><circle class="cls-4" cx="73" cy="56" r="55"/><text class="cls-2" transform="translate(33.99 48.75)">Cha<tspan class="cls-5" x="40.42" y="0">r</tspan><tspan class="cls-6" x="49.2" y="0">t</tspan><tspan x="57.32" y="0">er </tspan><tspan class="cls-7" x="-8.5" y="30">A</tspan><tspan x="6.72" y="30">pp</tspan><tspan class="cls-8" x="35.17" y="30">r</tspan><tspan class="cls-9" x="43.1" y="30">o</tspan><tspan class="cls-10" x="56.65" y="30">v</tspan><tspan x="68.57" y="30">al</tspan></text><line class="cls-3" x1="162.5" y1="258.25" x2="162.5" y2="358.25"/><circle class="cls-3" cx="162" cy="251" r="7.5"/><circle class="cls-4" cx="163" cy="413" r="55"/><text/><text class="cls-2" transform="translate(149.68 375.76)">20 <tspan class="cls-11" x="-36.4" y="30">M</tspan><tspan x="-16.15" y="30">embers</tspan></text><circle class="cls-3" cx="295" cy="251" r="7.5"/><line class="cls-3" x1="294.5" y1="244" x2="294.5" y2="129.5"/><circle class="cls-4" cx="295" cy="78" r="55"/><text class="cls-12" transform="translate(248.67 61.2)"><tspan class="cls-13">G</tspan><tspan x="13.02" y="0">o</tspan><tspan class="cls-14" x="24" y="0">F</tspan><tspan x="33.04" y="0">und</tspan><tspan class="cls-15" x="66.44" y="0">M</tspan><tspan x="82.64" y="0">e </tspan><tspan class="cls-16" x="13.7" y="24">C</tspan><tspan class="cls-17" x="25.24" y="24">r</tspan><tspan x="31.58" y="24">e</tspan><tspan class="cls-18" x="41.6" y="24">a</tspan><tspan class="cls-19" x="51.16" y="24">t</tspan><tspan x="57.66" y="24">ed</tspan></text><line class="cls-3" x1="294.99" y1="258.25" x2="294.5" y2="389.5"/><circle class="cls-3" cx="294.49" cy="251" r="7.5"/><circle class="cls-4" cx="295" cy="445" r="55"/><text/><text class="cls-2" transform="translate(246.9 437.76)"><tspan class="cls-7">S</tspan><tspan x="12.25" y="0">ta</tspan><tspan class="cls-5" x="32.57" y="0">r</tspan><tspan x="41.35" y="0">t D</tspan><tspan class="cls-20" x="71.57" y="0">a</tspan><tspan x="83.42" y="0">y</tspan></text><text class="cls-2" transform="translate(319.27 259.27)"><tspan class="cls-21">A</tspan><tspan x="15" y="0">ugust</tspan></text><line class="cls-3" x1="422.5" y1="243.5" x2="422.5" y2="153.5"/><circle class="cls-3" cx="423" cy="251" r="7.5"/><circle class="cls-4" cx="422.5" cy="105.5" r="49.5"/><text class="cls-12" transform="translate(393.41 94.2)"><tspan class="cls-22">D</tspan><tspan x="13.4" y="0">esi</tspan><tspan class="cls-23" x="36.02" y="0">g</tspan><tspan x="47.08" y="0">n </tspan><tspan class="cls-24" x="-7.79" y="24">F</tspan><tspan x="1.43" y="24">inali</tspan><tspan class="cls-25" x="36.25" y="24">z</tspan><tspan x="44.67" y="24">ed</tspan></text><line class="cls-3" x1="449.58" y1="260.12" x2="449.58" y2="360.12"/><circle class="cls-3" cx="449.08" cy="252.87" r="7.5"/><circle class="cls-4" cx="450.08" cy="414.87" r="55"/><text/><text class="cls-2" transform="translate(407.85 407.62)"><tspan class="cls-26">W</tspan><tspan x="20.33" y="0">ebsi</tspan><tspan class="cls-6" x="62.82" y="0">t</tspan><tspan x="70.95" y="0">e </tspan><tspan class="cls-7" x="2.92" y="30">S</tspan><tspan x="15.17" y="30">ta</tspan><tspan class="cls-5" x="35.5" y="30">r</tspan><tspan x="44.27" y="30">tup</tspan></text><circle class="cls-3" cx="534.88" cy="251" r="7.5"/><line class="cls-3" x1="534.38" y1="244" x2="534.38" y2="129.5"/><circle class="cls-4" cx="534.88" cy="78" r="55"/><text class="cls-12" transform="translate(488.55 61.2)"><tspan class="cls-13">G</tspan><tspan x="13.02" y="0">o</tspan><tspan class="cls-14" x="24" y="0">F</tspan><tspan x="33.04" y="0">und</tspan><tspan class="cls-15" x="66.44" y="0">M</tspan><tspan x="82.64" y="0">e </tspan><tspan x="12.94" y="24">Half</tspan><tspan class="cls-18" x="46.18" y="24">w</tspan><tspan class="cls-27" x="60.82" y="24">a</tspan><tspan x="70.3" y="24">y</tspan></text><text class="cls-2" transform="translate(694.82 258.79)"><tspan class="cls-28">F</tspan><tspan x="11.05" y="0">all</tspan></text><line class="cls-29" x1="617.36" y1="258.7" x2="617.36" y2="390.5"/><circle class="cls-29" cx="616.86" cy="251.45" r="7.5"/><circle class="cls-30" cx="617.37" cy="445.45" r="55"/><text/><text class="cls-2" transform="translate(596.19 438.21)"><tspan class="cls-31">T</tspan><tspan x="10.65" y="0">est </tspan><tspan x="-17.61" y="30">Launch</tspan></text><line class="cls-29" x1="749.5" y1="243.06" x2="749.49" y2="109.5"/><circle class="cls-29" cx="749.99" cy="250.31" r="7.5"/><circle class="cls-30" cx="748.99" cy="55" r="55"/><text class="cls-12" transform="matrix(1, 0, 0, 1, 709.24, 38.2)">Club <tspan class="cls-32" x="42.96" y="0">O</tspan><tspan class="cls-33" x="57.06" y="0">ff</tspan><tspan x="73.36" y="0">-</tspan><tspan x="-11.37" y="24">caly </tspan><tspan class="cls-34" x="25.61" y="24">C</tspan><tspan class="cls-35" x="37.15" y="24">r</tspan><tspan x="43.49" y="24">e</tspan><tspan class="cls-18" x="53.51" y="24">a</tspan><tspan class="cls-23" x="63.07" y="24">t</tspan><tspan x="69.57" y="24">ed</tspan></text><line class="cls-29" x1="819.01" y1="257.95" x2="819.01" y2="389.76"/><circle class="cls-29" cx="818.51" cy="250.7" r="7.5"/><circle class="cls-30" cx="819.02" cy="444.71" r="55"/><text/><text class="cls-2" transform="translate(769.8 437.46)"><tspan class="cls-24">F</tspan><tspan x="11.53" y="0">irst Club </tspan><tspan x="28.57" y="30">D</tspan><tspan class="cls-20" x="45.22" y="30">a</tspan><tspan x="57.07" y="30">y</tspan></text><line class="cls-29" x1="1127.38" y1="243.78" x2="1127.36" y2="110.22"/><circle class="cls-29" cx="1127.87" cy="251.03" r="7.5"/><circle class="cls-30" cx="1126.87" cy="55.72" r="55"/><text class="cls-12" transform="matrix(1, 0, 0, 1, 1095.38, 38.92)">Balloon <tspan x="-19.83" y="24">fully c</tspan><tspan class="cls-17" x="29.09" y="24">r</tspan><tspan x="35.43" y="24">e</tspan><tspan class="cls-18" x="45.45" y="24">a</tspan><tspan class="cls-36" x="55.01" y="24">t</tspan><tspan x="61.51" y="24">ed</tspan></text><line class="cls-29" x1="1248.01" y1="256.12" x2="1248.01" y2="387.92"/><circle class="cls-29" cx="1247.51" cy="248.87" r="7.5"/><circle class="cls-30" cx="1248.02" cy="442.87" r="55"/><text/><text class="cls-2" transform="translate(1225.65 435.63)"><tspan class="cls-24">F</tspan><tspan x="11.53" y="0">irst </tspan><tspan x="-16.42" y="30">Launch</tspan></text><line class="cls-29" x1="873.06" y1="243.94" x2="873.06" y2="126.5"/><circle class="cls-29" cx="873.54" cy="251.19" r="7.5"/><circle class="cls-30" cx="874" cy="72" r="55"/><text class="cls-12" transform="matrix(1, 0, 0, 1, 840.16, 55.08)"><tspan class="cls-37">W</tspan><tspan x="16.26" y="0">ebsi</tspan><tspan class="cls-36" x="50.26" y="0">t</tspan><tspan x="56.76" y="0">e </tspan><tspan x="0.11" y="24">finished</tspan></text></g></g></svg>