<?xml version="1.0" standalone="no"?>
<!DOCTYPE svg PUBLIC "-//W3C//DTD SVG 20010904//EN" "http://www.w3.org/TR/2001/REC-SVG-20010904/DTD/svg10.dtd">
<svg version="1.0" xmlns="http://www.w3.org/2000/svg" width="2000.000000pt" height="2000.000000pt"
    viewBox="0 350 1000.000000 250.000000" preserveAspectRatio="xMidYMid meet">
    <g transform="translate(0.000000,1000.000000) scale(0.100000,-0.100000)" fill="#000000" stroke="none">
        <path d="M4735 7288 c-111 -11 -300 -49 -419 -83 -735 -213 -1324 -750 -1606
-1464 -41 -103 -101 -300 -114 -373 l-7 -38 83 0 84 0 16 138 c29 237 55 345
110 456 105 209 235 391 407 568 62 65 144 143 181 173 67 55 67 55 159 64 82
9 256 0 269 -14 6 -5 70 -432 78 -515 l6 -66 -38 -29 c-157 -118 -465 -409
-595 -563 -40 -48 -53 -56 -149 -91 -58 -21 -141 -55 -185 -77 l-80 -39 160
-3 c179 -3 159 -10 225 77 24 31 32 34 195 67 173 34 470 80 559 86 l50 3 30
-117 31 -118 261 0 262 0 36 103 c21 56 40 108 44 114 12 19 450 -20 892 -79
l89 -11 46 -64 47 -63 286 0 c170 0 282 4 277 9 -25 24 -338 100 -523 127
l-107 16 -190 187 c-170 166 -367 347 -509 467 l-49 42 53 98 c65 120 138 242
225 372 l66 99 82 17 c155 30 324 40 464 27 71 -7 140 -15 155 -18 34 -7 154
-113 250 -220 128 -142 217 -272 303 -442 l45 -90 -11 -138 c-13 -188 -41
-410 -65 -525 l-6 -28 181 0 c100 0 181 4 181 9 0 27 -109 372 -161 512 -34
90 -73 213 -86 272 -13 59 -37 151 -53 203 -27 90 -27 95 -8 77 36 -32 183
-234 242 -333 115 -191 219 -441 267 -642 l23 -98 108 0 c60 0 108 4 108 9 0
28 -65 254 -101 352 -325 883 -1131 1508 -2063 1598 -128 13 -382 12 -511 -1z
m570 -117 c179 -32 276 -60 307 -89 l27 -25 -57 -42 c-68 -51 -120 -100 -188
-178 l-51 -57 -161 -50 c-166 -51 -397 -132 -556 -193 l-88 -34 -152 72 c-83
39 -214 98 -291 130 -77 32 -143 63 -147 69 -4 6 -8 53 -8 104 l0 93 76 35
c173 81 453 157 669 183 136 16 482 6 620 -18z" />
        <path d="M855 5154 c-110 -27 -166 -70 -207 -159 -22 -48 -23 -63 -26 -325 -4
-304 2 -355 48 -419 53 -73 106 -91 480 -162 194 -37 269 -55 278 -67 16 -20
13 -175 -3 -191 -5 -5 -91 -19 -189 -31 -144 -17 -181 -18 -188 -8 -4 7 -8 52
-8 101 0 63 -3 87 -12 87 -7 0 -105 -10 -217 -22 l-203 -22 4 -191 c5 -199 14
-243 59 -306 25 -35 78 -64 134 -72 23 -4 97 2 170 13 72 11 240 36 375 55
135 20 268 42 296 50 96 27 168 97 201 195 16 48 18 89 18 305 0 285 -6 317
-74 378 -51 46 -115 66 -421 132 -140 31 -270 60 -287 66 l-33 11 0 93 c0 52
4 96 9 100 5 3 86 8 179 12 l169 6 6 -23 c3 -12 3 -54 0 -92 l-6 -70 129 6
c71 4 171 9 223 12 l93 6 -4 162 c-6 186 -19 237 -78 296 -71 71 -87 74 -515
76 -209 1 -389 0 -400 -2z" />
        <path d="M2279 5150 c-94 -16 -152 -60 -191 -145 l-23 -50 0 -620 0 -620 22
-42 c46 -85 128 -120 261 -110 155 11 649 57 725 66 128 17 206 62 248 143 35
69 40 155 37 683 -3 577 -1 561 -83 633 -74 65 -75 65 -535 68 -228 1 -436 -1
-461 -6z m642 -362 c1 -7 1 -191 0 -408 -2 -319 -5 -397 -16 -406 -16 -12
-389 -39 -405 -29 -15 10 -14 827 2 843 18 18 417 17 419 0z" />
        <path d="M3781 5149 c-104 -20 -177 -82 -203 -173 -8 -29 -12 -200 -12 -576
-1 -603 -2 -595 74 -664 73 -65 73 -65 655 -47 328 11 372 18 437 71 20 16 47
51 60 77 21 44 23 63 26 236 l4 187 -221 0 -221 0 0 -114 0 -114 -72 -7 c-40
-3 -125 -5 -188 -3 l-115 3 0 395 0 395 184 3 c141 2 186 -1 193 -10 4 -7 8
-59 8 -115 l0 -103 215 0 215 0 0 165 c0 189 -10 248 -51 304 -34 48 -84 75
-164 90 -70 13 -758 13 -824 0z" />
        <path d="M5227 5150 c-106 -18 -183 -82 -207 -171 -7 -25 -10 -228 -8 -571 3
-524 3 -534 25 -573 28 -52 68 -90 118 -111 47 -20 254 -31 665 -36 301 -3
321 0 384 73 49 58 56 95 56 296 l0 180 -61 7 c-34 3 -131 6 -215 6 l-154 0 0
-110 c0 -105 -1 -110 -22 -115 -13 -3 -99 -2 -193 2 l-170 8 0 390 0 390 184
3 c141 2 186 -1 193 -10 4 -7 8 -59 8 -115 l0 -103 133 0 c72 0 169 -3 215 -7
l84 -6 -4 199 c-3 191 -4 202 -28 249 -34 66 -98 109 -183 124 -73 13 -744 13
-820 1z" />
        <path d="M6380 5006 l0 -153 53 -7 c28 -3 71 -6 95 -6 l42 0 0 -435 0 -435
-96 0 -97 0 7 -152 c4 -84 8 -154 9 -154 1 -1 115 -9 252 -18 281 -19 645 -49
903 -75 l172 -17 0 171 c0 95 -3 213 -6 262 l-7 91 -66 6 c-36 3 -112 8 -168
12 l-103 7 0 -83 0 -83 -82 6 c-46 4 -127 10 -180 13 l-98 7 0 135 0 135 157
-7 c86 -3 203 -9 260 -13 l103 -6 0 171 c0 172 0 172 -22 172 -69 1 -491 20
-493 22 -2 2 -6 59 -10 127 l-7 124 23 -6 c13 -4 95 -7 182 -7 l157 0 0 -85 0
-85 129 0 c70 0 149 -3 175 -6 l46 -7 0 267 0 266 -665 0 -665 0 0 -154z" />
        <path d="M7860 4990 l0 -170 95 0 95 0 0 -481 0 -480 -95 7 -95 7 0 -166 0
-166 33 -6 c17 -3 73 -10 122 -15 115 -13 540 -69 583 -76 l32 -6 0 180 0 180
-75 7 -75 7 0 141 0 140 82 -7 c45 -4 84 -9 86 -11 3 -2 62 -154 133 -336 71
-183 131 -335 134 -338 5 -4 441 -80 468 -81 4 0 7 85 7 190 l0 189 -32 5
c-18 3 -60 9 -92 13 l-59 8 -72 190 -73 190 35 7 c81 18 139 73 169 160 17 47
19 86 19 343 0 246 -3 298 -17 346 -26 82 -66 132 -135 165 l-58 29 -607 3
-608 3 0 -171z m958 -216 l32 -5 0 -171 0 -171 -162 7 c-90 4 -173 10 -185 13
-23 5 -23 7 -23 172 l0 166 152 -3 c84 -1 168 -5 186 -8z" />
        <path d="M2863 3476 c-194 -49 -353 -220 -370 -397 -13 -145 55 -267 185 -331
65 -32 70 -33 187 -32 149 1 246 29 359 105 126 84 194 182 204 292 l5 60
-169 -7 c-93 -3 -222 -9 -287 -13 -133 -7 -126 -1 -130 -103 l-2 -55 135 3
c74 1 146 5 160 7 25 5 25 5 -5 -21 -47 -41 -131 -75 -195 -81 -82 -8 -145 12
-192 59 -35 35 -38 42 -38 96 0 139 130 253 290 253 68 0 148 -24 164 -50 5
-7 50 -11 127 -11 120 0 120 0 114 23 -22 72 -107 155 -194 188 -70 27 -266
36 -348 15z" />
        <path d="M4506 3393 c-3 -49 -9 -197 -12 -330 l-7 -243 242 0 241 0 0 75 0 75
-142 0 -141 0 6 255 7 255 -94 0 -93 0 -7 -87z" />
        <path d="M5986 3464 c-7 -19 -9 -17 134 -174 57 -63 112 -124 122 -136 18 -20
16 -23 -96 -160 -101 -125 -136 -173 -136 -187 0 -2 44 -7 97 -11 54 -4 101
-12 104 -17 3 -6 43 40 89 100 45 61 85 111 89 111 3 0 45 -46 91 -101 47 -56
94 -107 105 -114 11 -7 63 -15 116 -19 83 -5 98 -4 103 10 4 11 -35 64 -126
170 -73 85 -142 166 -152 179 l-19 24 85 118 c109 150 138 194 138 204 0 5
-49 9 -108 9 l-108 0 -54 -77 c-96 -139 -73 -137 -176 -18 l-89 104 -101 0
c-86 1 -103 -2 -108 -15z" />
        <path d="M3825 3367 c-251 -431 -325 -564 -325 -585 0 -24 2 -24 46 -18 26 3
70 6 99 6 l51 0 39 74 39 73 90 7 c49 3 119 6 155 6 l66 -1 29 -64 29 -65 67
0 c86 0 130 9 130 26 0 8 -54 130 -121 272 -67 141 -133 283 -146 315 l-26 57
-81 0 -81 0 -60 -103z m163 -204 l30 -71 -21 -6 c-35 -9 -129 -7 -125 3 4 13
83 149 84 148 1 -1 15 -34 32 -74z" />
        <path d="M5213 3161 c-90 -169 -163 -315 -163 -324 0 -15 13 -17 98 -17 l98 0
32 65 32 65 145 0 c164 0 162 1 205 -90 20 -42 28 -50 50 -50 15 0 61 -3 103
-6 74 -7 77 -6 77 15 0 16 -273 518 -344 634 -9 14 -25 17 -91 17 l-80 -1
-162 -308z m285 14 c18 -36 32 -68 32 -70 0 -3 -31 -5 -70 -5 -38 0 -70 2 -70
5 0 10 65 135 70 135 3 0 20 -29 38 -65z" />
        <path d="M6844 3459 c-3 -6 64 -115 150 -242 l156 -232 17 -136 17 -137 95 -9
c53 -6 100 -6 105 -2 6 5 3 55 -7 126 -10 65 -17 131 -17 147 0 16 41 130 90
252 50 123 90 228 90 234 0 7 -33 10 -102 8 l-103 -3 -50 -141 -49 -142 -89
144 -89 144 -103 0 c-64 0 -106 -4 -111 -11z" />
    </g>
</svg>